[Header]
FileType HTR
DataType HTRS
FileVersion 1
NumSegments 64
NumFrames 4
DataFrameRate 24
EulerRotationOrder ZYX
CalibrationUnits mm
RotationUnits Degrees
GlobalAxisofGravity Y
BoneLengthAxis Y
ScaleFactor 1.0
[SegmentNames&Hierarchy]
Hips	GLOBAL
Spine	Hips
Spine1	Spine
Spine2	Spine1
Neck	Spine2
Head	Neck
LeftEye	Head
RightEye	Head
LeftShoulder	Spine2
LeftArm	LeftShoulder
LeftForeArm	LeftArm
LeftHand	LeftForeArm
LeftHandThumb1	LeftHand
LeftHandThumb2	LeftHandThumb1
LeftHandThumb3	LeftHandThumb2
LeftHandThumb4	LeftHandThumb3
LeftHandIndex1	LeftHand
LeftHandIndex2	LeftHandIndex1
LeftHandIndex3	LeftHandIndex2
LeftHandIndex4	LeftHandIndex3
LeftHandMiddle1	LeftHand
LeftHandMiddle2	LeftHandMiddle1
LeftHandMiddle3	LeftHandMiddle2
LeftHandMiddle4	LeftHandMiddle3
LeftHandRing1	LeftHand
LeftHandRing2	LeftHandRing1
LeftHandRing3	LeftHandRing2
LeftHandRing4	LeftHandRing3
LeftHandPinky1	LeftHand
LeftHandPinky2	LeftHandPinky1
LeftHandPinky3	LeftHandPinky2
LeftHandPinky4	LeftHandPinky3
RightShoulder	Spine2
RightArm	RightShoulder
RightForeArm	RightArm
RightHand	RightForeArm
RightHandPinky1	RightHand
RightHandPinky2	RightHandPinky1
RightHandPinky3	RightHandPinky2
RightHandPinky4	RightHandPinky3
RightHandRing1	RightHand
RightHandRing2	RightHandRing1
RightHandRing3	RightHandRing2
RightHandRing4	RightHandRing3
RightHandMiddle1	RightHand
RightHandMiddle2	RightHandMiddle1
RightHandMiddle3	RightHandMiddle2
RightHandMiddle4	RightHandMiddle3
RightHandIndex1	RightHand
RightHandIndex2	RightHandIndex1
RightHandIndex3	RightHandIndex2
RightHandIndex4	RightHandIndex3
RightHandThumb1	RightHand
RightHandThumb2	RightHandThumb1
RightHandThumb3	RightHandThumb2
RightHandThumb4	RightHandThumb3
LeftUpLeg	Hips
LeftLeg	LeftUpLeg
LeftFoot	LeftLeg
LeftToeBase	LeftFoot
RightUpLeg	Hips
RightLeg	RightUpLeg
RightFoot	RightLeg
RightToeBase	RightFoot
[BasePosition]
Hips	0	0	0	0	0	0	1
Spine	0	0	0	0	0	0	1
Spine1	0	0	0	0	0	0	1
Spine2	0	0	0	0	0	0	1
Neck	0	0	0	0	0	0	1
Head	0	0	0	0	0	0	1
LeftEye	0	0	0	0	0	0	1
RightEye	0	0	0	0	0	0	1
LeftShoulder	0	0	0	0	0	0	1
LeftArm	0	0	0	0	0	0	1
LeftForeArm	0	0	0	0	0	0	1
LeftHand	0	0	0	0	0	0	1
LeftHandThumb1	0	0	0	0	0	0	1
LeftHandThumb2	0	0	0	0	0	0	1
LeftHandThumb3	0	0	0	0	0	0	1
LeftHandThumb4	0	0	0	0	0	0	1
LeftHandIndex1	0	0	0	0	0	0	1
LeftHandIndex2	0	0	0	0	0	0	1
LeftHandIndex3	0	0	0	0	0	0	1
LeftHandIndex4	0	0	0	0	0	0	1
LeftHandMiddle1	0	0	0	0	0	0	1
LeftHandMiddle2	0	0	0	0	0	0	1
LeftHandMiddle3	0	0	0	0	0	0	1
LeftHandMiddle4	0	0	0	0	0	0	1
LeftHandRing1	0	0	0	0	0	0	1
LeftHandRing2	0	0	0	0	0	0	1
LeftHandRing3	0	0	0	0	0	0	1
LeftHandRing4	0	0	0	0	0	0	1
LeftHandPinky1	0	0	0	0	0	0	1
LeftHandPinky2	0	0	0	0	0	0	1
LeftHandPinky3	0	0	0	0	0	0	1
LeftHandPinky4	0	0	0	0	0	0	1
RightShoulder	0	0	0	0	0	0	1
RightArm	0	0	0	0	0	0	1
RightForeArm	0	0	0	0	0	0	1
RightHand	0	0	0	0	0	0	1
RightHandPinky1	0	0	0	0	0	0	1
RightHandPinky2	0	0	0	0	0	0	1
RightHandPinky3	0	0	0	0	0	0	1
RightHandPinky4	0	0	0	0	0	0	1
RightHandRing1	0	0	0	0	0	0	1
RightHandRing2	0	0	0	0	0	0	1
RightHandRing3	0	0	0	0	0	0	1
RightHandRing4	0	0	0	0	0	0	1
RightHandMiddle1	0	0	0	0	0	0	1
RightHandMiddle2	0	0	0	0	0	0	1
RightHandMiddle3	0	0	0	0	0	0	1
RightHandMiddle4	0	0	0	0	0	0	1
RightHandIndex1	0	0	0	0	0	0	1
RightHandIndex2	0	0	0	0	0	0	1
RightHandIndex3	0	0	0	0	0	0	1
RightHandIndex4	0	0	0	0	0	0	1
RightHandThumb1	0	0	0	0	0	0	1
RightHandThumb2	0	0	0	0	0	0	1
RightHandThumb3	0	0	0	0	0	0	1
RightHandThumb4	0	0	0	0	0	0	1
LeftUpLeg	0	0	0	0	0	0	1
LeftLeg	0	0	0	0	0	0	1
LeftFoot	0	0	0	0	0	0	1
LeftToeBase	0	0	0	0	0	0	1
RightUpLeg	0	0	0	0	0	0	1
RightLeg	0	0	0	0	0	0	1
RightFoot	0	0	0	0	0	0	1
RightToeBase	0	0	0	0	0	0	1
[Hips]
466	151.7645874	1002.626648	-147.1385498	174.9987793	196.5721893	-544.7789307	1.0
467	164.2117462	991.1994629	-154.0681458	171.7601471	200.7315063	-542.0787354	1.0
468	174.45224	977.8063965	-152.6987152	168.5923462	204.57547	-536.961731	1.0
469	181.4173126	966.0338745	-149.9623413	167.2745361	204.4695892	-531.7244263	1.0
[Spine]
466	0	101.8159943	1.315000057	16.22556877	-20.6949482	-13.07069874	1.0
467	0	101.8159943	1.315000057	19.48927116	-16.21376801	-13.96919155	1.0
468	0	101.8159943	1.315000057	18.71586609	-11.96583652	-14.78776741	1.0
469	0	101.8159943	1.315000057	15.96554852	-8.68729496	-16.71942139	1.0
[Spine1]
466	0	100.8349991	-10.00800037	1.04178369	-3.259467125	3.354341984	1.0
467	0	100.8349991	-10.00800037	-0.1995926648	-2.578569412	1.463462949	1.0
468	0	100.8349991	-10.00800037	-0.7213178873	-1.844535708	-1.183680177	1.0
469	0	100.8349991	-10.00800037	-0.4305889904	-1.348784089	-2.432351589	1.0
[Spine2]
466	0	91	-13.73399925	1.248456478	-3.171538115	3.36315465	1.0
467	0	91	-13.73399925	-0.09677552432	-2.537637234	1.541463614	1.0
468	0	91	-13.73399925	-0.7081888318	-1.896366	-1.107159972	1.0
469	0	91	-13.73399925	-0.4368980825	-1.426484704	-2.386011362	1.0
[Neck]
466	0	166.7169952	-25.16200066	-9.327292442	5.439382553	6.91237545	1.0
467	0	166.7169952	-25.16200066	-9.710238457	4.989869595	8.079421043	1.0
468	0	166.7169952	-25.16200066	-9.339439392	4.686249733	7.807780743	1.0
469	0	166.7169952	-25.16200066	-9.65541935	4.443496704	5.246664047	1.0
[Head]
466	0	96.17900085	16.84999847	-8.08199501	32.61223602	0.5904233456	1.0
467	0	96.17900085	16.84999847	-7.744411469	31.32126236	3.108201027	1.0
468	0	96.17900085	16.84999847	-9.152623177	29.59985352	6.086688042	1.0
469	0	96.17900085	16.84999847	-11.0194912	26.40345955	8.395326614	1.0
[LeftEye]
466	30.6760006	64.09500122	92.83599854	0	0	0	1.0
467	30.6760006	64.09500122	92.83599854	0	0	0	1.0
468	30.6760006	64.09500122	92.83599854	0	0	0	1.0
469	30.6760006	64.09500122	92.83599854	0	0	0	1.0
[RightEye]
466	-30.6760006	64.09500122	92.83499908	0	0	0	1.0
467	-30.6760006	64.09500122	92.83499908	0	0	0	1.0
468	-30.6760006	64.09500122	92.83499908	0	0	0	1.0
469	-30.6760006	64.09500122	92.83499908	0	0	0	1.0
[LeftShoulder]
466	45.70400238	109.4599991	-26.28000069	2.99292779	-17.60080338	-6.458022118	1.0
467	45.70400238	109.4599991	-26.28000069	3.325562716	-15.72941494	-9.947926521	1.0
468	45.70400238	109.4599991	-26.28000069	3.448932886	-12.08677673	-15.3043375	1.0
469	45.70400238	109.4599991	-26.28000069	2.65808773	-7.124848366	-18.45442772	1.0
[LeftArm]
466	105.923996	-5.24600029	-22.32099915	2.944230556	-45.85678101	-26.58116531	1.0
467	105.923996	-5.24600029	-22.32099915	16.22093964	-38.74441528	-27.93333054	1.0
468	105.923996	-5.24600029	-22.32099915	26.27671051	-29.88437653	-26.8564415	1.0
469	105.923996	-5.24600029	-22.32099915	32.5945282	-22.81900215	-28.49243355	1.0
[LeftForeArm]
466	278.414978	-0.0009999999311	0	-1.017883278e-05	-32.9677124	-0.000212697094	1.0
467	278.414978	-0.0009999999311	0	-4.346894116e-07	-26.06336594	-0.0002130286448	1.0
468	278.414978	-0.0009999999311	0	7.030797406e-06	-20.32976341	-0.0001997918298	1.0
469	278.414978	-0.0009999999311	0	6.087110705e-06	-13.26629543	-0.0002046656446	1.0
[LeftHand]
466	283.2879944	0	0	-32.32770157	-12.99544239	6.808617115	1.0
467	283.2879944	0	0	-42.77872086	-12.02676964	12.04421329	1.0
468	283.2879944	0	0	-52.71315384	-10.7209568	16.63783646	1.0
469	283.2879944	0	0	-58.78907776	-8.087506294	18.98021889	1.0
[LeftHandThumb1]
466	24.6609993	-15.75	26.8239994	3.506134033	-1.665390491	-15.20785236	1.0
467	24.6609993	-15.75	26.8239994	3.985128403	-1.197705269	-16.16164398	1.0
468	24.6609993	-15.75	26.8239994	3.889710426	-2.025599003	-17.87363815	1.0
469	24.6609993	-15.75	26.8239994	3.516151428	-3.369132519	-19.97631454	1.0
[LeftHandThumb2]
466	32.29800034	-18.64699936	18.64699936	11.50202656	23.2353611	7.666996479	1.0
467	32.29800034	-18.64699936	18.64699936	11.16652584	22.62736893	7.396571159	1.0
468	32.29800034	-18.64699936	18.64699936	12.47644711	24.83325386	8.474773407	1.0
469	32.29800034	-18.64699936	18.64699936	15.16918373	28.9145298	10.79012108	1.0
[LeftHandThumb3]
466	26.52600098	-15.31499958	15.31499958	0.04719431698	2.705315113	2.627054214	1.0
467	26.52600098	-15.31499958	15.31499958	0.001204113942	2.609456301	2.614863157	1.0
468	26.52600098	-15.31499958	15.31499958	0.4150712192	3.3754251	2.733194113	1.0
469	26.52600098	-15.31499958	15.31499958	1.171211481	4.722100735	2.96416378	1.0
[LeftHandThumb4]
466	19.54599953	-11.28499985	11.28499985	0	0	0	1.0
467	19.54599953	-11.28499985	11.28499985	0	0	0	1.0
468	19.54599953	-11.28499985	11.28499985	0	0	0	1.0
469	19.54599953	-11.28499985	11.28499985	0	0	0	1.0
[LeftHandIndex1]
466	91.09299469	-5.170999527	22.60099792	-0.8883478045	-4.830761433	-30.48766708	1.0
467	91.09299469	-5.170999527	22.60099792	-0.7480288148	-6.363174438	-28.50548363	1.0
468	91.09299469	-5.170999527	22.60099792	-0.6580498219	-8.584804535	-27.68560791	1.0
469	91.09299469	-5.170999527	22.60099792	-0.6113393903	-10.61532307	-27.73169327	1.0
[LeftHandIndex2]
466	36.76399994	0	0	-0.0001153888225	0.04131149873	-0.3436250091	1.0
467	36.76399994	0	0	-0.01512947027	0.4562164545	-3.797626495	1.0
468	36.76399994	0	0	-0.0998814553	1.168621898	-9.769159317	1.0
469	36.76399994	0	0	-0.2272668481	1.754454136	-14.76071739	1.0
[LeftHandIndex3]
466	28.83100128	0	0	-0.05280565843	0.8512629271	-7.099385738	1.0
467	28.83100128	0	0	-0.05466035753	0.8660643101	-7.223490238	1.0
468	28.83100128	0	0	-0.05434149876	0.8635470867	-7.202393532	1.0
469	28.83100128	0	0	-0.05343569815	0.8562914729	-7.141617298	1.0
[LeftHandIndex4]
466	23.92700005	0	0	0	0	0	1.0
467	23.92700005	0	0	0	0	0	1.0
468	23.92700005	0	0	0	0	0	1.0
469	23.92700005	0	0	0	0	0	1.0
[LeftHandMiddle1]
466	95.33399963	0	0	-0.9942064881	-0.1283470839	-31.36472893	1.0
467	95.33399963	0	0	-0.9080767632	-0.7468701601	-30.01324081	1.0
468	95.33399963	0	0	-0.8643533587	-1.266150951	-29.33626938	1.0
469	95.33399963	0	0	-0.8596921563	-1.681575537	-29.31572342	1.0
[LeftHandMiddle2]
466	36.98199844	0	0	-1.426757216	4.192739487	-37.57276917	1.0
467	36.98199844	0	0	-1.40118742	4.159331322	-37.22122574	1.0
468	36.98199844	0	0	-1.468030453	4.245688915	-38.1336174	1.0
469	36.98199844	0	0	-1.552067876	4.350316525	-39.25485229	1.0
[LeftHandMiddle3]
466	29.50900078	0	0	-0.06140631437	0.917609334	-7.65602541	1.0
467	29.50900078	0	0	-0.06237656251	0.9247683287	-7.716122627	1.0
468	29.50900078	0	0	-0.06315835565	0.9304145575	-7.763577938	1.0
469	29.50900078	0	0	-0.06374509633	0.9350007772	-7.802017689	1.0
[LeftHandMiddle4]
466	28.3390007	0	0	0	0	0	1.0
467	28.3390007	0	0	0	0	0	1.0
468	28.3390007	0	0	0	0	0	1.0
469	28.3390007	0	0	0	0	0	1.0
[LeftHandRing1]
466	91.04499817	-0.4390000105	-18.65100098	-1.304833412	3.018395424	-35.88457108	1.0
467	91.04499817	-0.4390000105	-18.65100098	-1.246099591	2.777736664	-35.04480743	1.0
468	91.04499817	-0.4390000105	-18.65100098	-1.214229345	2.477611542	-34.58768845	1.0
469	91.04499817	-0.4390000105	-18.65100098	-1.217394233	2.252592325	-34.64286041	1.0
[LeftHandRing2]
466	31.54000092	0	0	-3.026816845	5.690908432	-55.98630524	1.0
467	31.54000092	0	0	-2.949001789	5.637850285	-55.19781494	1.0
468	31.54000092	0	0	-2.909320116	5.610209942	-54.79298401	1.0
469	31.54000092	0	0	-2.891679287	5.597774982	-54.61234283	1.0
[LeftHandRing3]
466	29.37700081	0	0	-0.3236461282	2.086072206	-17.63652992	1.0
467	29.37700081	0	0	-0.3249959052	2.090280771	-17.67341614	1.0
468	29.37700081	0	0	-0.3259507716	2.093281984	-17.699646	1.0
469	29.37700081	0	0	-0.3278647959	2.099281311	-17.7520771	1.0
[LeftHandRing4]
466	26.47500038	0	0	0	0	0	1.0
467	26.47500038	0	0	0	0	0	1.0
468	26.47500038	0	0	0	0	0	1.0
469	26.47500038	0	0	0	0	0	1.0
[LeftHandPinky1]
466	80.77799988	-4.887000084	-38.06099701	-2.358823299	4.407803059	-48.93635559	1.0
467	80.77799988	-4.887000084	-38.06099701	-2.297100544	4.419436932	-48.24837494	1.0
468	80.77799988	-4.887000084	-38.06099701	-2.257172108	4.492179871	-47.79948807	1.0
469	80.77799988	-4.887000084	-38.06099701	-2.267184734	4.64693594	-47.91181564	1.0
[LeftHandPinky2]
466	36	0	0	0.4010741711	3.317570448	-55.34486008	1.0
467	36	0	0	0.4589336216	3.18749547	-54.32549286	1.0
468	36	0	0	0.5677483082	2.923759937	-52.28375626	1.0
469	36	0	0	0.6902806163	2.58951664	-49.73684311	1.0
[LeftHandPinky3]
466	21.14200211	0	0	-0.08205153793	1.059930801	-8.852530479	1.0
467	21.14200211	0	0	-0.08335655928	1.06827724	-8.922828674	1.0
468	21.14200211	0	0	-0.08557792008	1.082374573	-9.041614532	1.0
469	21.14200211	0	0	-0.08823777735	1.098877668	-9.180747986	1.0
[LeftHandPinky4]
466	19.75699997	0	0	0	0	0	1.0
467	19.75699997	0	0	0	0	0	1.0
468	19.75699997	0	0	0	0	0	1.0
469	19.75699997	0	0	0	0	0	1.0
[RightShoulder]
466	-45.70000076	109.4620056	-26.28000069	0.2904360294	-13.26852322	-13.03303909	1.0
467	-45.70000076	109.4620056	-26.28000069	-0.1057714522	-9.808792114	-7.747977257	1.0
468	-45.70000076	109.4620056	-26.28000069	-0.03753077239	-5.517440796	-7.529430866	1.0
469	-45.70000076	109.4620056	-26.28000069	-0.03272847086	-2.660143852	-14.09582806	1.0
[RightArm]
466	-105.9280014	-5.248000145	-22.32099915	-52.54121399	11.55099869	-22.34212112	1.0
467	-105.9280014	-5.248000145	-22.32099915	-64.96823883	16.60132027	-25.65709496	1.0
468	-105.9280014	-5.248000145	-22.32099915	-79.36592865	23.42868805	-21.43269348	1.0
469	-105.9280014	-5.248000145	-22.32099915	-93.78388977	31.86660194	-10.62423706	1.0
[RightForeArm]
466	-278.414978	0	0	-4.946922672e-06	44.49451447	-1.098636403e-05	1.0
467	-278.414978	0	0	8.87036822e-06	48.42896271	2.306851911e-06	1.0
468	-278.414978	0	0	1.490235718e-05	57.49375916	1.328327107e-05	1.0
469	-278.414978	0	0	-1.924867502e-05	68.00830841	-2.793619205e-05	1.0
[RightHand]
466	-283.2879944	0	0.0009999999311	7.253509045	-1.20399487	20.47592354	1.0
467	-283.2879944	0	0.0009999999311	-9.496780396	18.05398369	15.89006519	1.0
468	-283.2879944	0	0.0009999999311	-28.80112267	30.98143196	3.508092403	1.0
469	-283.2879944	0	0.0009999999311	-45.5279007	33.23847961	-12.2933321	1.0
[RightHandPinky1]
466	-80.76699829	-4.885000229	-38.06000137	-5.327332497	-10.26111984	76.67784119	1.0
467	-80.76699829	-4.885000229	-38.06000137	-5.285184383	-10.20559025	76.31832886	1.0
468	-80.76699829	-4.885000229	-38.06000137	-5.242133617	-10.23903751	75.95178223	1.0
469	-80.76699829	-4.885000229	-38.06000137	-5.220823765	-10.44463348	75.77322388	1.0
[RightHandPinky2]
466	-36	0	0.0009999999311	-2.646282911	-5.448421478	51.79863358	1.0
467	-36	0	0.0009999999311	-2.637564659	-5.44158268	51.70679855	1.0
468	-36	0	0.0009999999311	-2.588316202	-5.402495384	51.18568802	1.0
469	-36	0	0.0009999999311	-2.485136271	-5.318162918	50.08098984	1.0
[RightHandPinky3]
466	-21.14200211	0	0	-0.0462436974	0.8006709814	-6.610683918	1.0
467	-21.14200211	0	0	-0.0460623242	0.7991361022	-6.597790718	1.0
468	-21.14200211	0	0	-0.04559042305	0.7949669361	-6.563333035	1.0
469	-21.14200211	0	0	-0.04478846118	0.7880820036	-6.506064892	1.0
[RightHandPinky4]
466	-19.75699997	0	0	0	0	0	1.0
467	-19.75699997	0	0	0	0	0	1.0
468	-19.75699997	0	0	0	0	0	1.0
469	-19.75699997	0	0	0	0	0	1.0
[RightHandRing1]
466	-91.03599548	-0.4390000105	-18.65100098	-4.103871822	-6.496266365	65.92630768	1.0
467	-91.03599548	-0.4390000105	-18.65100098	-4.071487427	-6.049291134	65.63220978	1.0
468	-91.03599548	-0.4390000105	-18.65100098	-4.029564381	-5.537389278	65.25242615	1.0
469	-91.03599548	-0.4390000105	-18.65100098	-3.980322361	-5.221552372	64.80406189	1.0
[RightHandRing2]
466	-31.54000092	0	0	-0.582819283	-2.785684586	23.62944984	1.0
467	-31.54000092	0	0	-0.5650415421	-2.74475956	23.26119232	1.0
468	-31.54000092	0	0	-0.5349382758	-2.673722267	22.62430573	1.0
469	-31.54000092	0	0	-0.5127654076	-2.619929552	22.14403534	1.0
[RightHandRing3]
466	-29.37700081	0	0	-0.2061914355	0.07193494588	-0.5924423933	1.0
467	-29.37700081	0	0	-0.4499814808	0.1061695293	-0.8745339513	1.0
468	-29.37700081	0	0	-0.7379793525	0.1482362598	-1.221242785	1.0
469	-29.37700081	0	0	-0.7875018716	0.1553360671	-1.279740572	1.0
[RightHandRing4]
466	-26.47500038	0	0	0	0	0	1.0
467	-26.47500038	0	0	0	0	0	1.0
468	-26.47500038	0	0	0	0	0	1.0
469	-26.47500038	0	0	0	0	0	1.0
[RightHandMiddle1]
466	-95.32500458	0	0	-4.122944355	-3.140714645	66.13877106	1.0
467	-95.32500458	0	0	-4.087894917	-2.199611187	65.84812164	1.0
468	-95.32500458	0	0	-4.024175644	-1.019159198	65.31477356	1.0
469	-95.32500458	0	0	-3.906220913	-0.09201182425	64.28005219	1.0
[RightHandMiddle2]
466	-36.98199844	0	0	-0.3965598941	-2.314213037	19.44493294	1.0
467	-36.98199844	0	0	-0.3673463464	-2.229818583	18.7081852	1.0
468	-36.98199844	0	0	-0.3325497806	-2.124351978	17.79197884	1.0
469	-36.98199844	0	0	-0.3337928355	-2.128231287	17.82570648	1.0
[RightHandMiddle3]
466	-29.50900078	0	0	-1.162782073	0.1146837026	-0.9608584046	1.0
467	-29.50900078	0	0	-1.556973577	0.1926009506	-1.602887988	1.0
468	-29.50900078	0	0	-2.045077085	0.2820884883	-2.340602875	1.0
469	-29.50900078	0	0	-2.216763258	0.2816007435	-2.337054253	1.0
[RightHandMiddle4]
466	-28.3390007	0	0.0009999999311	0	0	0	1.0
467	-28.3390007	0	0.0009999999311	0	0	0	1.0
468	-28.3390007	0	0.0009999999311	0	0	0	1.0
469	-28.3390007	0	0.0009999999311	0	0	0	1.0
[RightHandIndex1]
466	-91.08300018	-5.167999744	22.60099792	-5.204471588	0.5304470062	75.72024536	1.0
467	-91.08300018	-5.167999744	22.60099792	-5.158677578	2.166621447	75.39241791	1.0
468	-91.08300018	-5.167999744	22.60099792	-5.050480843	4.261446953	74.57983398	1.0
469	-91.08300018	-5.167999744	22.60099792	-4.809456825	5.974436283	72.63969421	1.0
[RightHandIndex2]
466	-36.76399994	0	0	-0.0006764705176	-0.09697441757	0.7988795638	1.0
467	-36.76399994	0	0	-9.768099289e-07	-0.001706242445	0.01394786034	1.0
468	-36.76399994	0	0	8.355550563e-07	-3.379562941e-07	3.074912229e-06	1.0
469	-36.76399994	0	0	1.659451527e-06	-3.402443781e-06	4.730131695e-05	1.0
[RightHandIndex3]
466	-28.83100128	0	0	-0.02944184095	0.6393013597	-5.273935795	1.0
467	-28.83100128	0	0	-0.04048611969	0.7493733168	-6.185243607	1.0
468	-28.83100128	0	0	-0.05518859625	0.8744046092	-7.222574711	1.0
469	-28.83100128	0	0	-0.05587601662	0.8797870278	-7.267296314	1.0
[RightHandIndex4]
466	-23.92700005	0	0	0	0	0	1.0
467	-23.92700005	0	0	0	0	0	1.0
468	-23.92700005	0	0	0	0	0	1.0
469	-23.92700005	0	0	0	0	0	1.0
[RightHandThumb1]
466	-24.64799881	-15.72700024	26.82600021	6.014860153	-9.91234684	-1.26550734	1.0
467	-24.64799881	-15.72700024	26.82600021	5.837110996	-9.612296104	-1.312659621	1.0
468	-24.64799881	-15.72700024	26.82600021	5.347972393	-9.383075714	-1.523069263	1.0
469	-24.64799881	-15.72700024	26.82600021	4.670451164	-9.347074509	-1.912050128	1.0
[RightHandThumb2]
466	-32.29800034	-18.64699936	18.64699936	13.70109081	-32.33865356	-5.293673515	1.0
467	-32.29800034	-18.64699936	18.64699936	13.69064522	-32.17421722	-5.507556438	1.0
468	-32.29800034	-18.64699936	18.64699936	13.35919285	-31.40489006	-5.711301804	1.0
469	-32.29800034	-18.64699936	18.64699936	12.6981678	-30.04332161	-5.753804207	1.0
[RightHandThumb3]
466	-26.52600098	-15.31399918	15.31399918	17.44585609	-30.30767822	-13.43815422	1.0
467	-26.52600098	-15.31399918	15.31399918	16.48662567	-29.22575378	-12.84383297	1.0
468	-26.52600098	-15.31399918	15.31399918	14.26346016	-26.48921394	-11.16114712	1.0
469	-26.52600098	-15.31399918	15.31399918	11.5701952	-22.78499222	-9.092391968	1.0
[RightHandThumb4]
466	-19.54599953	-11.28499985	11.28499985	0	0	0	1.0
467	-19.54599953	-11.28499985	11.28499985	0	0	0	1.0
468	-19.54599953	-11.28499985	11.28499985	0	0	0	1.0
469	-19.54599953	-11.28499985	11.28499985	0	0	0	1.0
[LeftUpLeg]
466	82.07800293	-67.51699829	-15.99599934	-2.432914257	-5.493614674	3.625995636	1.0
467	82.07800293	-67.51699829	-15.99599934	-1.805725098	-5.041986465	-0.1036632806	1.0
468	82.07800293	-67.51699829	-15.99599934	-1.115974784	-4.907739162	-4.511734962	1.0
469	82.07800293	-67.51699829	-15.99599934	-2.687507153	-1.302814603	-9.089663506	1.0
[LeftLeg]
466	0	-443.7049866	2.845999956	30.85428047	3.829749823	-2.410937309	1.0
467	0	-443.7049866	2.845999956	33.63286972	0.8016192317	-3.222291231	1.0
468	0	-443.7049866	2.845999956	35.10134888	9.229420662	-2.466185808	1.0
469	0	-443.7049866	2.845999956	36.44459152	9.077584267	-2.49877286	1.0
[LeftFoot]
466	0	-444.2789917	-29.8219986	-20.81715965	6.235972881	1.045837641	1.0
467	0	-444.2789917	-29.8219986	-22.9243412	8.436135292	1.401549935	1.0
468	0	-444.2789917	-29.8219986	-24.39757538	5.409943104	3.037991047	1.0
469	0	-444.2789917	-29.8219986	-25.13721085	3.16236043	4.600208759	1.0
[LeftToeBase]
466	0	-87.28699493	107.1060028	-3.766849518	7.205464954e-06	-1.998766237e-07	1.0
467	0	-87.28699493	107.1060028	-0.5408924818	-4.315764727e-06	1.225158599e-06	1.0
468	0	-87.28699493	107.1060028	-0.0001269284548	-1.624327865e-06	-7.653775356e-07	1.0
469	0	-87.28699493	107.1060028	-5.161661102e-05	3.245467497e-06	-2.133018143e-06	1.0
[RightUpLeg]
466	-82.07800293	-67.51699829	-15.99599934	-12.65347576	8.314554214	3.368762255	1.0
467	-82.07800293	-67.51699829	-15.99599934	-20.86662865	3.321475029	-2.83428359	1.0
468	-82.07800293	-67.51699829	-15.99599934	-27.53687668	-5.935061455	-8.091950417	1.0
469	-82.07800293	-67.51699829	-15.99599934	-32.1023674	-12.3973732	-14.53646183	1.0
[RightLeg]
466	0	-443.7049866	2.861999989	35.76206207	-12.54991627	-0.3471054733	1.0
467	0	-443.7049866	2.861999989	49.74417877	-11.21728039	1.180194974	1.0
468	0	-443.7049866	2.861999989	60.83749008	-10.22652531	-4.118061066	1.0
469	0	-443.7049866	2.861999989	66.85179138	-8.950979233	-7.021719933	1.0
[RightFoot]
466	0	-444.2770081	-29.83799934	-9.117886543	12.79417229	3.011955261	1.0
467	0	-444.2770081	-29.83799934	5.080479145	8.562094688	22.43200874	1.0
468	0	-444.2770081	-29.83799934	-2.039392471	-0.8453547359	23.7724762	1.0
469	0	-444.2770081	-29.83799934	-8.390530586	-6.907092571	12.63134289	1.0
[RightToeBase]
466	0	-87.28699493	107.1060028	-7.11731863	3.639547401e-07	-4.277191238e-06	1.0
467	0	-87.28699493	107.1060028	-18.76113701	-1.515220642	-5.59722662	1.0
468	0	-87.28699493	107.1060028	-1.632389903	0.1313485801	-5.223417282	1.0
469	0	-87.28699493	107.1060028	5.961237907	-2.504401164e-05	6.667880825e-06	1.0
[EndOfFile]
